<?xml version="1.0" standalone="no"?>
<!DOCTYPE svg PUBLIC "-//W3C//DTD SVG 20010904//EN"
 "http://www.w3.org/TR/2001/REC-SVG-20010904/DTD/svg10.dtd">
<svg version="1.0" xmlns="http://www.w3.org/2000/svg"
 width="296.000000pt" height="296.000000pt" viewBox="0 0 296.000000 296.000000"
 preserveAspectRatio="xMidYMid meet">
<metadata>
Created by potrace 1.14, written by Peter Selinger 2001-2017
</metadata>
<g transform="translate(0.000000,296.000000) scale(0.100000,-0.100000)"
fill="#000000" stroke="none">
<path d="M1359 2917 c-38 -29 -39 -41 -39 -604 0 -480 -2 -551 -16 -571 l-15
-22 -599 0 c-356 0 -609 -4 -624 -10 -52 -19 -54 -33 -58 -342 l-4 -287 26
-13 c20 -10 153 -14 618 -16 326 -1 591 -6 588 -10 -9 -15 22 -133 40 -154 41
-45 91 -66 219 -92 148 -30 216 -32 323 -10 42 9 86 18 97 20 66 13 92 43 63
72 -10 10 -4 20 28 50 22 20 53 54 68 74 25 33 26 39 12 44 -9 4 -20 4 -23 0
-4 -3 -1 -6 5 -6 20 0 14 -14 -22 -52 -82 -87 -214 -148 -320 -148 -77 0 -193
36 -261 81 -89 58 -109 78 -154 148 -69 108 -97 233 -76 337 7 33 18 70 24 81
34 64 97 147 136 180 61 51 161 103 198 103 25 0 28 2 17 15 -7 9 -10 18 -8
21 6 6 55 8 103 5 27 -1 28 -3 12 -15 -16 -13 -16 -14 5 -20 13 -3 36 -6 51
-6 40 0 103 -30 85 -41 -7 -4 -15 -4 -18 0 -8 12 -120 30 -165 26 -22 -1 -51
-8 -65 -14 -23 -10 -21 -11 20 -9 54 1 132 -9 180 -25 19 -6 44 -10 55 -9 11
1 14 -1 8 -4 -15 -7 78 -74 102 -74 9 0 13 -5 10 -10 -4 -6 -1 -17 5 -25 9
-11 17 -12 32 -4 21 11 39 -2 37 -26 0 -5 -3 -4 -6 3 -2 6 -9 12 -14 12 -6 0
-7 -5 -3 -11 3 -6 0 -15 -7 -20 -9 -7 -4 -8 16 -4 28 6 29 5 8 -7 -20 -12 -20
-15 -8 -38 8 -14 14 -32 15 -41 0 -9 10 -29 21 -44 18 -22 20 -29 8 -36 -8 -5
-10 -9 -6 -9 4 0 3 -9 -3 -20 -8 -14 -21 -20 -48 -20 -93 0 -212 -93 -250
-195 -31 -83 -34 -228 -4 -240 34 -13 252 90 252 119 0 5 11 23 24 40 13 17
33 51 46 76 12 25 29 53 37 62 8 9 21 34 29 55 10 28 13 32 14 15 0 -13 -5
-33 -11 -45 -11 -21 -10 -21 6 -6 37 35 28 219 -14 282 -62 95 -97 140 -139
179 l-47 44 2 566 c1 354 -2 579 -8 601 -5 20 -18 41 -29 47 -28 15 -561 13
-581 -3z m444 -1134 c-7 -2 -19 -2 -25 0 -7 3 -2 5 12 5 14 0 19 -2 13 -5z
m44 -9 c-3 -3 -12 -4 -19 -1 -8 3 -5 6 6 6 11 1 17 -2 13 -5z m43 -54 c-8 -5
-19 -10 -25 -10 -5 0 -3 5 5 10 8 5 20 10 25 10 6 0 3 -5 -5 -10z m47 -26 c-1
-2 -13 -1 -26 3 -16 4 -19 8 -10 14 12 7 45 -9 36 -17z m13 -35 c0 -14 -17
-10 -23 5 -4 10 -1 13 9 9 7 -3 14 -9 14 -14z m-600 -3 c0 -2 -8 -10 -17 -17
-16 -13 -17 -12 -4 4 13 16 21 21 21 13z m634 -16 c-22 -9 -29 -6 -20 9 4 6
14 7 23 4 15 -6 14 -7 -3 -13z m193 -347 c-3 -10 -5 -2 -5 17 0 19 2 27 5 18
2 -10 2 -26 0 -35z"/>
<path d="M1485 1713 c-60 -32 -140 -103 -150 -132 -10 -33 8 -25 56 24 24 25
52 48 62 51 9 3 14 10 11 16 -4 7 -2 8 4 4 11 -7 62 31 62 46 0 12 -11 9 -45
-9z"/>
<path d="M1610 1625 c10 -13 7 -17 -25 -31 -20 -8 -39 -13 -42 -10 -8 8 -39
-26 -57 -61 -42 -82 3 -214 84 -247 45 -18 100 -21 100 -6 0 11 65 80 76 80 4
0 16 7 25 16 10 9 29 17 41 18 40 2 51 102 18 165 -26 52 -102 91 -178 91 -47
0 -53 -2 -42 -15z m-33 -86 c14 -14 6 -39 -12 -39 -18 0 -28 17 -21 35 6 18
18 19 33 4z m111 -172 c2 -12 -3 -17 -17 -17 -15 0 -21 6 -21 21 0 25 33 22
38 -4z"/>
<path d="M1565 1610 c-3 -6 1 -7 9 -4 18 7 21 14 7 14 -6 0 -13 -4 -16 -10z"/>
<path d="M1311 1534 c0 -11 3 -14 6 -6 3 7 2 16 -1 19 -3 4 -6 -2 -5 -13z"/>
<path d="M2102 1058 c3 -7 19 -22 36 -33 17 -11 31 -24 32 -28 0 -4 11 -20 25
-35 29 -31 19 -50 -16 -31 -13 7 -30 12 -38 10 -7 -1 -24 8 -38 21 l-24 23
-19 -25 c-11 -14 -20 -32 -19 -40 0 -12 2 -11 10 3 12 21 48 23 55 2 3 -8 -5
-28 -19 -45 -24 -28 -38 -61 -51 -121 -3 -14 -17 -31 -31 -37 -20 -9 -25 -19
-25 -46 0 -31 11 -46 91 -125 50 -50 95 -91 100 -91 5 0 9 -7 9 -16 0 -20 27
-47 40 -39 6 4 7 -1 3 -11 -5 -13 -3 -16 10 -11 9 3 19 1 23 -5 4 -7 3 -8 -4
-4 -21 13 -12 -9 16 -39 15 -16 31 -38 35 -48 4 -10 11 -15 17 -12 6 4 7 -1 4
-12 -5 -17 -5 -17 8 -1 13 15 20 11 76 -48 34 -35 56 -64 48 -64 -8 0 -18 5
-21 10 -8 13 -73 10 -100 -4 -19 -9 -18 -11 10 -17 35 -8 151 -11 144 -4 -3 2
22 33 56 68 34 34 76 82 93 106 28 39 32 50 28 93 -4 38 -2 48 11 48 10 0 13
6 9 16 -3 8 -2 13 3 10 5 -3 14 0 20 8 6 7 24 16 40 19 35 7 67 49 104 133 37
85 35 98 -15 127 -50 28 -292 162 -453 250 l-109 60 -48 -26 c-46 -26 -48 -26
-78 -9 -16 9 -30 20 -30 25 0 4 -5 7 -11 7 -6 0 -9 -6 -7 -12z m465 -323 c0
-8 -4 -15 -9 -15 -10 0 -11 14 -1 23 9 10 10 9 10 -8z m212 -82 c-20 -27 -49
-55 -49 -47 0 10 44 63 54 63 5 1 2 -7 -5 -16z"/>
<path d="M2340 251 c0 -6 5 -13 10 -16 6 -3 10 1 10 9 0 9 -4 16 -10 16 -5 0
-10 -4 -10 -9z"/>
</g>
</svg>
