<?xml version="1.0" standalone="no"?>
<!DOCTYPE svg PUBLIC "-//W3C//DTD SVG 20010904//EN"
 "http://www.w3.org/TR/2001/REC-SVG-20010904/DTD/svg10.dtd">
<svg version="1.0" xmlns="http://www.w3.org/2000/svg"
 width="307.000000pt" height="307.000000pt" viewBox="0 0 307.000000 307.000000"
 preserveAspectRatio="xMidYMid meet">
<metadata>
Created by potrace 1.14, written by Peter Selinger 2001-2017
</metadata>
<g transform="translate(0.000000,307.000000) scale(0.100000,-0.100000)"
fill="#000000" stroke="none">
<path d="M1468 3033 c-15 -2 -39 -18 -53 -34 l-25 -31 0 -603 c0 -548 -1 -604
-17 -616 -13 -11 -137 -15 -675 -19 l-659 -5 -19 -25 c-18 -23 -20 -45 -20
-331 0 -298 1 -306 21 -325 20 -18 46 -19 669 -19 l648 0 64 -66 c125 -131
196 -172 332 -189 121 -15 198 3 332 78 39 22 154 136 154 152 0 6 -8 14 -19
17 -17 4 -12 16 40 108 52 91 59 111 61 162 l1 58 7 -45 c6 -33 7 -24 4 33 -2
50 -10 90 -21 110 -44 79 -128 202 -163 237 l-38 38 -4 630 c-3 532 -6 633
-18 648 -34 39 -69 44 -327 43 -136 -1 -260 -4 -275 -6z m357 -1210 c-35 -9
-39 -22 -9 -28 131 -25 223 -62 256 -102 7 -9 -5 -5 -27 10 -22 15 -43 27 -47
27 -4 0 -19 5 -35 11 -33 14 -42 16 -113 27 -63 11 -171 4 -186 -11 -9 -9 29
-15 132 -21 137 -7 226 -54 322 -169 12 -15 22 -32 22 -37 0 -6 5 -10 10 -10
6 0 9 -3 8 -7 -4 -13 34 -107 51 -126 11 -13 12 -24 5 -44 -8 -23 -18 -28 -76
-39 -188 -35 -300 -194 -281 -399 6 -63 7 -65 34 -65 31 0 130 34 169 59 47
30 90 65 90 74 0 12 26 37 39 37 42 0 -60 -107 -153 -160 -142 -81 -328 -73
-488 23 -191 114 -289 330 -248 545 12 65 99 202 165 260 54 47 176 112 211
112 28 0 33 26 7 33 -10 3 23 5 72 5 50 0 81 -2 70 -5z m75 -13 c12 -8 11 -10
-7 -10 -13 0 -23 5 -23 10 0 13 11 13 30 0z m-300 -20 c-8 -5 -19 -10 -25 -10
-5 0 -3 5 5 10 8 5 20 10 25 10 6 0 3 -5 -5 -10z m385 -4 c19 -8 35 -17 35
-20 0 -3 -15 1 -32 8 -18 7 -40 16 -48 19 -10 3 -10 6 -2 6 7 1 28 -6 47 -13z
m85 -52 c0 -2 -9 0 -20 6 -11 6 -20 13 -20 16 0 2 9 0 20 -6 11 -6 20 -13 20
-16z m-600 -17 c0 -2 -19 -21 -42 -42 l-43 -40 40 43 c36 39 45 47 45 39z
m740 -190 c0 -7 -6 -3 -12 8 -6 11 -17 24 -25 28 -7 4 -13 13 -13 20 0 7 12
-1 25 -16 14 -15 25 -33 25 -40z"/>
<path d="M1552 1720 c-87 -39 -203 -184 -171 -214 9 -8 10 -7 6 7 -4 10 -1 17
7 17 7 0 19 12 27 26 17 32 94 103 154 141 70 44 56 59 -23 23z"/>
<path d="M1670 1628 c-19 -10 -27 -17 -17 -13 49 14 72 17 62 7 -10 -9 -81
-36 -100 -37 -5 0 -21 -18 -37 -40 -64 -93 -17 -256 85 -294 43 -17 108 -14
101 3 -4 9 6 20 25 31 17 8 31 22 31 29 0 19 69 59 92 53 25 -7 37 19 39 89 4
91 -26 135 -114 173 -59 26 -120 25 -167 -1z m-2 -106 c3 -16 -2 -22 -17 -22
-24 0 -35 15 -27 36 9 23 40 13 44 -14z m107 -167 c0 -28 -29 -25 -33 3 -3 19
0 23 15 20 10 -2 18 -12 18 -23z"/>
<path d="M1360 1490 c0 -5 5 -10 11 -10 5 0 7 5 4 10 -3 6 -8 10 -11 10 -2 0
-4 -4 -4 -10z"/>
<path d="M2291 1174 c0 -11 3 -14 6 -6 3 7 2 16 -1 19 -3 4 -6 -2 -5 -13z"/>
<path d="M2245 1000 c16 -16 35 -30 42 -30 17 0 16 -21 -3 -48 -19 -27 -28
-28 -54 -2 -26 26 -33 25 -53 -9 -20 -34 -23 -53 -4 -27 9 13 20 16 40 11 33
-9 33 -10 2 -51 -28 -37 -55 -113 -55 -157 0 -22 41 -82 173 -250 95 -122 195
-252 222 -289 75 -99 77 -100 142 -36 31 29 75 79 98 111 36 48 43 65 38 90
-7 44 31 98 77 111 41 12 60 32 95 101 25 49 58 137 53 140 -2 1 -86 48 -188
105 -102 57 -247 139 -322 182 -75 43 -143 78 -151 78 -8 0 -26 -11 -41 -25
-15 -14 -33 -25 -41 -25 -17 0 -75 33 -75 43 0 4 -5 7 -12 7 -6 0 1 -13 17
-30z m88 -85 c19 -27 11 -37 -21 -28 -23 6 -26 12 -16 37 8 22 16 20 37 -9z
m626 -315 c-49 -57 -70 -75 -53 -48 19 31 91 108 101 108 2 0 -19 -27 -48 -60z"/>
</g>
</svg>
